# xmcd CD database file
#
# Track frame offsets:
#	150
#	14358
#	28567
#	43941
#	59267
#	75882
#	89008
#	103206
#	117865
#	129965
#	145829
#	158280
#	174776
#	188353
#
# Disc length: 2747 seconds
#
# Revision: 4
# Processed by: cddbd v1.5.2PL0 Copyright (c) Steve Scherf et al.
# Submitted via: CDex 1.51
#
DISCID=a00ab90e
DTITLE=Sara STORER - Firefly
DYEAR=2005
DGENRE=Country
TTITLE0=The Ballad Of Tommy Foster
TTITLE1=Crazy As It Seems
TTITLE2=Billabong
TTITLE3=Important Things (Duet featuring Josh Cunningham)
TTITLE4=Firefly
TTITLE5=Since I've Gone
TTITLE6=Snow In Mid-July
TTITLE7=Star
TTITLE8=Molly Green
TTITLE9=Chillers Bend (Duet featuring Greg Storer)
TTITLE10=Dungarees
TTITLE11=Walk The Landings
TTITLE12=Must've Been A Hell Of A Party (Duet featuring Paul Kelly)
TTITLE13=Angel
EXTD=YEAR: 2005
EXTT0=
EXTT1=
EXTT2=
EXTT3=
EXTT4=
EXTT5=
EXTT6=
EXTT7=
EXTT8=
EXTT9=
EXTT10=
EXTT11=
EXTT12=
EXTT13=
PLAYORDER=
